<svg xmlns="http://www.w3.org/2000/svg" viewBox="0 0 500 500"><g id="freepik--background-simple--inject-185"><path d="M328.89,269c50.85-20.7,103.17,14,120.05-57.62,10.08-42.79-9.52-83.62-46.68-113.45C359.07,63.24,321.09,54,272.73,84.1c-48.88,30.38-60.89,35.28-116.87,29.89-87.82-8.46-159,99-76.49,160.65,40.1,30,100.8,58.05,151,58.74,17.07.23,40.22-1.65,54.84-12C305.61,307,301.91,279.94,328.89,269Z" style="fill:#407BFF"></path><path d="M328.89,269c50.85-20.7,103.17,14,120.05-57.62,10.08-42.79-9.52-83.62-46.68-113.45C359.07,63.24,321.09,54,272.73,84.1c-48.88,30.38-60.89,35.28-116.87,29.89-87.82-8.46-159,99-76.49,160.65,40.1,30,100.8,58.05,151,58.74,17.07.23,40.22-1.65,54.84-12C305.61,307,301.91,279.94,328.89,269Z" style="fill:#fff;opacity:0.9"></path></g><g id="freepik--Shadow--inject-185"><ellipse cx="250" cy="416.24" rx="193.89" ry="11.32" style="fill:#f5f5f5"></ellipse></g><g id="freepik--Device--inject-185"><rect x="118.88" y="403.8" width="116.93" height="13.34" style="fill:#407BFF"></rect><rect x="118.88" y="403.8" width="116.93" height="13.34" style="opacity:0.30000000000000004"></rect><rect x="121.92" y="405.7" width="2.93" height="9.55" style="fill:#263238"></rect><rect x="127.06" y="405.7" width="2.93" height="9.55" style="fill:#263238"></rect><rect x="132.21" y="405.7" width="2.93" height="9.55" style="fill:#263238"></rect><rect x="137.35" y="405.7" width="2.93" height="9.55" style="fill:#263238"></rect><rect x="142.49" y="405.7" width="2.93" height="9.55" style="fill:#263238"></rect><rect x="147.63" y="405.7" width="2.93" height="9.55" style="fill:#263238"></rect><rect x="152.78" y="405.7" width="2.93" height="9.55" style="fill:#263238"></rect><rect x="157.92" y="405.7" width="2.93" height="9.55" style="fill:#263238"></rect><rect x="163.06" y="405.7" width="2.93" height="9.55" style="fill:#263238"></rect><rect x="168.2" y="405.7" width="2.93" height="9.55" style="fill:#263238"></rect><rect x="173.34" y="405.7" width="2.93" height="9.55" style="fill:#263238"></rect><rect x="178.49" y="405.7" width="2.93" height="9.55" style="fill:#263238"></rect><rect x="183.63" y="405.7" width="2.93" height="9.55" style="fill:#263238"></rect><rect x="188.77" y="405.7" width="2.93" height="9.55" style="fill:#263238"></rect><rect x="193.91" y="405.7" width="2.93" height="9.55" style="fill:#263238"></rect><rect x="199.06" y="405.7" width="2.93" height="9.55" style="fill:#263238"></rect><rect x="204.2" y="405.7" width="2.93" height="9.55" style="fill:#263238"></rect><rect x="209.34" y="405.7" width="2.93" height="9.55" style="fill:#263238"></rect><rect x="214.48" y="405.7" width="2.93" height="9.55" style="fill:#263238"></rect><rect x="219.63" y="405.7" width="2.93" height="9.55" style="fill:#263238"></rect><rect x="224.77" y="405.7" width="2.93" height="9.55" style="fill:#263238"></rect><rect x="229.91" y="405.7" width="2.93" height="9.55" style="fill:#263238"></rect><rect x="235.81" y="403.8" width="18.24" height="13.34" transform="translate(489.87 820.95) rotate(180)" style="fill:#263238"></rect><rect x="112.8" y="168.05" width="123.02" height="235.75" style="fill:#407BFF"></rect><rect x="112.8" y="168.05" width="123.02" height="235.75" style="fill:#fff;opacity:0.30000000000000004"></rect><rect x="120.86" y="166.03" width="131.21" height="2.02" style="fill:#263238"></rect><rect x="107.92" y="277.9" width="1" height="9.93" style="fill:#407BFF"></rect><rect x="107.92" y="291.17" width="1" height="25.83" style="fill:#407BFF"></rect><rect x="235.81" y="168.05" width="24.33" height="235.75" transform="translate(495.95 571.85) rotate(180)" style="fill:#407BFF"></rect><rect x="115.66" y="230.41" width="117.29" height="23.4" rx="3.27" style="fill:#407BFF;opacity:0.6000000000000001;mix-blend-mode:multiply"></rect><rect x="115.66" y="230.41" width="117.29" height="23.4" rx="3.27" style="opacity:0.2"></rect><path d="M223.08,239l-4.73-9.76V255H233V242.11H228.1A5.57,5.57,0,0,1,223.08,239Z" style="fill:#407BFF"></path><rect x="115.66" y="170.87" width="117.29" height="25.83" style="fill:#407BFF"></rect><rect x="115.66" y="170.87" width="117.29" height="25.83" style="fill:#fff;opacity:0.2"></rect><rect x="115.66" y="375" width="117.29" height="25.83" style="fill:#407BFF"></rect><rect x="115.66" y="375" width="117.29" height="25.83" style="fill:#fff;opacity:0.2"></rect><rect x="115.66" y="345.84" width="117.29" height="25.83" style="fill:#407BFF"></rect><rect x="115.66" y="345.84" width="117.29" height="25.83" style="fill:#fff;opacity:0.2"></rect><rect x="115.66" y="316.68" width="117.29" height="25.83" style="fill:#407BFF"></rect><rect x="115.66" y="316.68" width="117.29" height="25.83" style="fill:#fff;opacity:0.2"></rect><rect x="115.66" y="287.52" width="117.29" height="25.83" style="fill:#407BFF"></rect><rect x="115.66" y="287.52" width="117.29" height="25.83" style="fill:#fff;opacity:0.2"></rect><rect x="115.66" y="258.36" width="117.29" height="25.83" style="fill:#407BFF"></rect><rect x="115.66" y="258.36" width="117.29" height="25.83" style="fill:#fff;opacity:0.2"></rect><rect x="101.06" y="229.2" width="117.29" height="25.83" style="fill:#407BFF"></rect><rect x="101.06" y="229.2" width="117.29" height="25.83" style="fill:#fff;opacity:0.2"></rect><rect x="115.66" y="200.03" width="117.29" height="25.83" style="fill:#407BFF"></rect><rect x="115.66" y="200.03" width="117.29" height="25.83" style="fill:#fff;opacity:0.2"></rect><rect x="177.29" y="174.56" width="52.13" height="18.45" rx="3.77" style="fill:#407BFF"></rect><rect x="211.37" y="174.97" width="4.72" height="17.65" rx="1.6" transform="translate(397.52 -29.94) rotate(90)" style="fill:#fff;opacity:0.2"></rect><rect x="177.29" y="203.72" width="52.13" height="18.45" rx="3.77" style="fill:#407BFF"></rect><rect x="211.37" y="204.13" width="4.72" height="17.65" rx="1.6" transform="translate(426.68 -0.78) rotate(90)" style="fill:#fff;opacity:0.2"></rect><rect x="162.69" y="232.89" width="52.13" height="18.45" rx="3.77" style="fill:#407BFF"></rect><rect x="196.77" y="233.29" width="4.72" height="17.65" rx="1.6" transform="translate(441.24 42.98) rotate(90)" style="fill:#fff;opacity:0.2"></rect><rect x="177.29" y="262.05" width="52.13" height="18.45" rx="3.77" style="fill:#407BFF"></rect><rect x="211.37" y="262.45" width="4.72" height="17.65" rx="1.6" transform="translate(485 57.54) rotate(90)" style="fill:#fff;opacity:0.2"></rect><rect x="177.29" y="291.21" width="52.13" height="18.45" rx="3.77" style="fill:#407BFF"></rect><rect x="211.37" y="291.61" width="4.72" height="17.65" rx="1.6" transform="translate(514.16 86.7) rotate(90)" style="fill:#fff;opacity:0.2"></rect><rect x="177.29" y="320.37" width="52.13" height="18.45" rx="3.77" style="fill:#407BFF"></rect><rect x="211.37" y="320.77" width="4.72" height="17.65" rx="1.6" transform="translate(543.32 115.86) rotate(90)" style="fill:#fff;opacity:0.2"></rect><rect x="177.29" y="349.53" width="52.13" height="18.45" rx="3.77" style="fill:#407BFF"></rect><rect x="211.37" y="349.93" width="4.72" height="17.65" rx="1.6" transform="translate(572.48 145.03) rotate(90)" style="fill:#fff;opacity:0.2"></rect><rect x="177.29" y="378.69" width="52.13" height="18.45" rx="3.77" style="fill:#407BFF"></rect><rect x="211.37" y="379.09" width="4.72" height="17.65" rx="1.6" transform="translate(601.65 174.19) rotate(90)" style="fill:#fff;opacity:0.2"></rect><circle cx="168.22" cy="183.79" r="2.98" style="fill:#407BFF"></circle><circle cx="159.7" cy="183.79" r="2.98" style="fill:#407BFF"></circle><circle cx="151.19" cy="183.79" r="2.98" style="fill:#407BFF"></circle><circle cx="151.19" cy="183.79" r="2.98" style="fill:#fff;opacity:0.4"></circle><path d="M145.65,183.79a3,3,0,1,1-3-3A3,3,0,0,1,145.65,183.79Z" style="fill:#407BFF"></path><circle cx="168.22" cy="212.95" r="2.98" style="fill:#407BFF"></circle><circle cx="159.7" cy="212.95" r="2.98" style="fill:#407BFF"></circle><circle cx="151.19" cy="212.95" r="2.98" style="fill:#407BFF"></circle><path d="M145.65,213a3,3,0,1,1-3-3A3,3,0,0,1,145.65,213Z" style="fill:#407BFF"></path><path d="M145.65,213a3,3,0,1,1-3-3A3,3,0,0,1,145.65,213Z" style="fill:#fff;opacity:0.4"></path><circle cx="153.62" cy="242.11" r="2.98" style="fill:#407BFF"></circle><circle cx="153.62" cy="242.11" r="2.98" style="fill:#fff;opacity:0.4"></circle><circle cx="145.1" cy="242.11" r="2.98" style="fill:#407BFF"></circle><circle cx="136.59" cy="242.11" r="2.98" style="fill:#407BFF"></circle><circle cx="136.59" cy="242.11" r="2.98" style="fill:#fff;opacity:0.4"></circle><circle cx="128.07" cy="242.11" r="2.98" style="fill:#407BFF"></circle><circle cx="168.22" cy="271.27" r="2.98" style="fill:#407BFF"></circle><circle cx="168.22" cy="271.27" r="2.98" style="fill:#fff;opacity:0.4"></circle><circle cx="159.7" cy="271.27" r="2.98" style="fill:#407BFF"></circle><circle cx="159.7" cy="271.27" r="2.98" style="fill:#fff;opacity:0.4"></circle><circle cx="151.19" cy="271.27" r="2.98" style="fill:#407BFF"></circle><path d="M145.65,271.27a3,3,0,1,1-3-3A3,3,0,0,1,145.65,271.27Z" style="fill:#407BFF"></path><circle cx="168.22" cy="300.43" r="2.98" style="fill:#407BFF"></circle><circle cx="159.7" cy="300.43" r="2.98" style="fill:#407BFF"></circle><circle cx="159.7" cy="300.43" r="2.98" style="fill:#fff;opacity:0.4"></circle><circle cx="151.19" cy="300.43" r="2.98" style="fill:#407BFF"></circle><path d="M145.65,300.43a3,3,0,1,1-3-3A3,3,0,0,1,145.65,300.43Z" style="fill:#407BFF"></path><circle cx="168.22" cy="329.59" r="2.98" style="fill:#407BFF"></circle><circle cx="159.7" cy="329.59" r="2.98" style="fill:#407BFF"></circle><circle cx="151.19" cy="329.59" r="2.98" style="fill:#407BFF"></circle><circle cx="151.19" cy="329.59" r="2.98" style="fill:#fff;opacity:0.4"></circle><path d="M145.65,329.59a3,3,0,1,1-3-3A3,3,0,0,1,145.65,329.59Z" style="fill:#407BFF"></path><path d="M145.65,329.59a3,3,0,1,1-3-3A3,3,0,0,1,145.65,329.59Z" style="fill:#fff;opacity:0.4"></path><path d="M171.2,358.76a3,3,0,1,1-3-3A3,3,0,0,1,171.2,358.76Z" style="fill:#407BFF"></path><path d="M171.2,358.76a3,3,0,1,1-3-3A3,3,0,0,1,171.2,358.76Z" style="fill:#fff;opacity:0.4"></path><path d="M162.69,358.76a3,3,0,1,1-3-3A3,3,0,0,1,162.69,358.76Z" style="fill:#407BFF"></path><path d="M154.17,358.76a3,3,0,1,1-3-3A3,3,0,0,1,154.17,358.76Z" style="fill:#407BFF"></path><path d="M145.65,358.76a3,3,0,1,1-3-3A3,3,0,0,1,145.65,358.76Z" style="fill:#407BFF"></path><circle cx="168.22" cy="387.92" r="2.98" style="fill:#407BFF"></circle><circle cx="159.7" cy="387.92" r="2.98" style="fill:#407BFF"></circle><circle cx="151.19" cy="387.92" r="2.98" style="fill:#407BFF"></circle><circle cx="151.19" cy="387.92" r="2.98" style="fill:#fff;opacity:0.4"></circle><path d="M145.65,387.92a3,3,0,1,1-3-3A3,3,0,0,1,145.65,387.92Z" style="fill:#407BFF"></path><path d="M133.74,183.79a6.46,6.46,0,1,1-6.45-6.46A6.46,6.46,0,0,1,133.74,183.79Z" style="fill:#407BFF"></path><path d="M133.74,183.79a6.46,6.46,0,1,1-6.45-6.46A6.46,6.46,0,0,1,133.74,183.79Z" style="fill:#fff;opacity:0.4"></path><path d="M133.74,213a6.46,6.46,0,1,1-6.45-6.46A6.46,6.46,0,0,1,133.74,213Z" style="fill:#407BFF"></path><path d="M133.74,213a6.46,6.46,0,1,1-6.45-6.46A6.46,6.46,0,0,1,133.74,213Z" style="fill:#fff;opacity:0.4"></path><path d="M119.14,242.11a6.46,6.46,0,1,1-6.45-6.46A6.46,6.46,0,0,1,119.14,242.11Z" style="fill:#407BFF"></path><path d="M119.14,242.11a6.46,6.46,0,1,1-6.45-6.46A6.46,6.46,0,0,1,119.14,242.11Z" style="fill:#fff;opacity:0.4"></path><path d="M133.74,271.27a6.46,6.46,0,1,1-6.45-6.46A6.46,6.46,0,0,1,133.74,271.27Z" style="fill:#407BFF"></path><path d="M133.74,271.27a6.46,6.46,0,1,1-6.45-6.46A6.46,6.46,0,0,1,133.74,271.27Z" style="fill:#fff;opacity:0.4"></path><path d="M133.74,300.43a6.46,6.46,0,1,1-6.45-6.45A6.46,6.46,0,0,1,133.74,300.43Z" style="fill:#407BFF"></path><path d="M133.74,300.43a6.46,6.46,0,1,1-6.45-6.45A6.46,6.46,0,0,1,133.74,300.43Z" style="fill:#fff;opacity:0.4"></path><path d="M133.74,329.59a6.46,6.46,0,1,1-6.45-6.45A6.46,6.46,0,0,1,133.74,329.59Z" style="fill:#407BFF"></path><path d="M133.74,329.59a6.46,6.46,0,1,1-6.45-6.45A6.46,6.46,0,0,1,133.74,329.59Z" style="fill:#fff;opacity:0.4"></path><path d="M133.74,358.76a6.46,6.46,0,1,1-6.45-6.46A6.45,6.45,0,0,1,133.74,358.76Z" style="fill:#407BFF"></path><path d="M133.74,358.76a6.46,6.46,0,1,1-6.45-6.46A6.45,6.45,0,0,1,133.74,358.76Z" style="fill:#fff;opacity:0.4"></path><path d="M133.74,387.92a6.46,6.46,0,1,1-6.45-6.46A6.45,6.45,0,0,1,133.74,387.92Z" style="fill:#407BFF"></path><path d="M133.74,387.92a6.46,6.46,0,1,1-6.45-6.46A6.45,6.45,0,0,1,133.74,387.92Z" style="fill:#fff;opacity:0.4"></path></g><g id="freepik--Cloud--inject-185"><path d="M222.55,145.48a16.63,16.63,0,0,0-8.19-11.55h0c0-.13,0-.26,0-.39a16.69,16.69,0,0,0-16.69-16.69h-6.4v1.27a16.74,16.74,0,0,0-9.23,9.6,10.25,10.25,0,0,0-1.66-.15,10,10,0,0,0-9.27,6.29,11.25,11.25,0,0,0-6.88.51,12.14,12.14,0,0,0-7.73,10.85,11.94,11.94,0,0,0,11.94,12.2h45.21a9.07,9.07,0,0,0,9.16-8.87v-.1A16.06,16.06,0,0,0,222.55,145.48Z" style="fill:#407BFF"></path><path d="M216.16,145.48A16.63,16.63,0,0,0,208,133.93h0c0-.13,0-.26,0-.39a16.69,16.69,0,0,0-32.33-5.82,9.88,9.88,0,0,0-10.92,6.14,11.25,11.25,0,0,0-6.88.51,12.14,12.14,0,0,0-7.73,10.85,11.93,11.93,0,0,0,11.93,12.2h45.22a9.08,9.08,0,0,0,9.16-8.87v-.1A16.06,16.06,0,0,0,216.16,145.48Z" style="fill:#407BFF"></path><path d="M216.16,145.48A16.63,16.63,0,0,0,208,133.93h0c0-.13,0-.26,0-.39a16.69,16.69,0,0,0-32.33-5.82,9.88,9.88,0,0,0-10.92,6.14,11.25,11.25,0,0,0-6.88.51,12.14,12.14,0,0,0-7.73,10.85,11.93,11.93,0,0,0,11.93,12.2h45.22a9.08,9.08,0,0,0,9.16-8.87v-.1A16.06,16.06,0,0,0,216.16,145.48Z" style="fill:#fff;opacity:0.30000000000000004"></path></g><g id="freepik--Line--inject-185"><rect x="191.67" y="106.32" width="0.84" height="2.51" style="fill:#407BFF"></rect><rect x="191.67" y="106.32" width="0.84" height="2.51" style="opacity:0.2"></rect><path d="M353.38,163.34h-.84v-5h.84Zm0-10h-.84v-5h.84Zm0-10h-.84v-5h.84Zm0-10h-.84v-5h.84Zm0-10h-.84v-5h.84Zm0-10h-.84v-5h.84Zm0-10h-.84v-5h.84Zm-160.87-2.08h-.84V97.89a14.17,14.17,0,0,1,.09-1.6l.83.1a14.91,14.91,0,0,0-.08,1.5Zm159.3-7.68a12.63,12.63,0,0,0-2.43-4.14L350,89a13.43,13.43,0,0,1,2.6,4.42ZM194.05,91.81l-.73-.4a13.64,13.64,0,0,1,3.26-4l.54.65A12.57,12.57,0,0,0,194.05,91.81Zm151.52-5.24A12.39,12.39,0,0,0,341,85.26l.07-.84a13.43,13.43,0,0,1,4.93,1.4ZM201.33,85.8l-.25-.79a13.53,13.53,0,0,1,4.11-.64h.95v.84h-.95A12.86,12.86,0,0,0,201.33,85.8ZM336,85.21h-5v-.84h5Zm-10,0h-5v-.84h5Zm-10,0h-5v-.84h5Zm-10,0h-5v-.84h5Zm-10,0h-5v-.84h5Zm-10,0h-5v-.84h5Zm-10,0h-5v-.84h5Zm-10,0h-5v-.84h5Zm-10,0h-5v-.84h5Zm-10,0h-5v-.84h5Zm-10,0h-5v-.84h5Zm-10,0h-5v-.84h5Zm-10,0h-5v-.84h5Z" style="fill:#407BFF"></path><path d="M353.38,163.34h-.84v-5h.84Zm0-10h-.84v-5h.84Zm0-10h-.84v-5h.84Zm0-10h-.84v-5h.84Zm0-10h-.84v-5h.84Zm0-10h-.84v-5h.84Zm0-10h-.84v-5h.84Zm-160.87-2.08h-.84V97.89a14.17,14.17,0,0,1,.09-1.6l.83.1a14.91,14.91,0,0,0-.08,1.5Zm159.3-7.68a12.63,12.63,0,0,0-2.43-4.14L350,89a13.43,13.43,0,0,1,2.6,4.42ZM194.05,91.81l-.73-.4a13.64,13.64,0,0,1,3.26-4l.54.65A12.57,12.57,0,0,0,194.05,91.81Zm151.52-5.24A12.39,12.39,0,0,0,341,85.26l.07-.84a13.43,13.43,0,0,1,4.93,1.4ZM201.33,85.8l-.25-.79a13.53,13.53,0,0,1,4.11-.64h.95v.84h-.95A12.86,12.86,0,0,0,201.33,85.8ZM336,85.21h-5v-.84h5Zm-10,0h-5v-.84h5Zm-10,0h-5v-.84h5Zm-10,0h-5v-.84h5Zm-10,0h-5v-.84h5Zm-10,0h-5v-.84h5Zm-10,0h-5v-.84h5Zm-10,0h-5v-.84h5Zm-10,0h-5v-.84h5Zm-10,0h-5v-.84h5Zm-10,0h-5v-.84h5Zm-10,0h-5v-.84h5Zm-10,0h-5v-.84h5Z" style="opacity:0.2"></path><rect x="352.54" y="168.36" width="0.84" height="2.51" style="fill:#407BFF"></rect><rect x="352.54" y="168.36" width="0.84" height="2.51" style="opacity:0.2"></rect></g></svg>